<svg xmlns="http://www.w3.org/2000/svg" viewBox="0 0 2190 162" width="2190" height="162" xml:space="preserve"><path d="M58.2 2.6c14.4 0 26.1 3.7 35.2 11.2 9.1 7.5 13.6 16.8 13.6 28.1 0 7.2-1.9 13.5-5.7 19-3.8 5.5-9.3 9.8-16.5 13v1.3c10.9 2.5 19.4 7.4 25.5 14.7 6.1 7.3 9.2 15.9 9.2 25.7 0 8.7-2.2 16.5-6.7 23.3-4.5 6.8-10.6 12-18.5 15.4-7.9 3.4-17.2 5.2-27.9 5.2H.7V2.6h57.5zm-8.1 65.1c8 0 14.3-1.9 19-5.7 4.6-3.8 7-9.1 7-15.9 0-6.1-2.1-10.9-6.4-14.4-4.3-3.6-9.9-5.3-16.8-5.3H31v41.4h19.1zm7.1 68c10.3 0 18-1.9 23.2-5.8 5.2-3.9 7.9-9.5 7.9-17 0-6.7-2.6-11.9-7.8-15.8-5.2-3.9-12.2-5.8-20.9-5.8H31v44.4h26.2zM183.5 2.6v91.3c0 9.4 1.4 16.8 4.2 22.3 2.8 5.5 7.4 10.1 13.8 13.7 6.4 3.6 13.8 5.4 22.2 5.4 9.3 0 17.2-1.7 23.6-5.1 6.5-3.4 11.2-8 14.2-13.9s4.5-14 4.5-24.4V2.6h30.3v93.2c0 21.1-6.3 37.3-19 48.7-12.7 11.3-30.5 17-53.7 17-14.5 0-27.1-2.6-37.8-7.7s-18.8-12.6-24.4-22.4c-5.6-9.8-8.4-21.2-8.4-34.4V2.6h30.5zm173.8 0 38 52.4 38.4-52.4h36l-59.3 79.2v77.7h-30.3v-78l-59.6-79h36.8zm270.5 0c14.4 0 26.1 3.7 35.2 11.2 9.1 7.5 13.6 16.8 13.6 28.1 0 7.2-1.9 13.5-5.7 19-3.8 5.5-9.3 9.8-16.5 13v1.3c10.9 2.5 19.4 7.4 25.5 14.7 6.1 7.3 9.2 15.9 9.2 25.7 0 8.7-2.2 16.5-6.7 23.3-4.5 6.8-10.6 12-18.5 15.4-7.9 3.4-17.2 5.2-27.9 5.2h-65.7V2.6h57.5zm-8.1 65.1c8 0 14.3-1.9 19-5.7 4.6-3.8 7-9.1 7-15.9 0-6.1-2.1-10.9-6.4-14.4-4.3-3.6-9.9-5.3-16.8-5.3h-21.8v41.4h19zm7.1 68c10.3 0 18-1.9 23.2-5.8 5.2-3.9 7.9-9.5 7.9-17 0-6.7-2.6-11.9-7.8-15.8-5.2-3.9-12.2-5.8-20.9-5.8h-28.5v44.4h26.1zM753.1 2.6v91.3c0 9.4 1.4 16.8 4.2 22.3 2.8 5.5 7.4 10.1 13.8 13.7 6.4 3.6 13.8 5.4 22.2 5.4 9.3 0 17.2-1.7 23.6-5.1 6.5-3.4 11.2-8 14.2-13.9s4.5-14 4.5-24.4V2.6H866v93.2c0 21.1-6.3 37.3-19 48.7-12.7 11.3-30.5 17-53.7 17-14.5 0-27.1-2.6-37.8-7.7-10.7-5.2-18.8-12.6-24.4-22.4-5.6-9.8-8.4-21.2-8.4-34.4V2.6h30.4zm173.7 0 38 52.4 38.4-52.4h36L980 81.7v77.7h-30.3V81.5L890 2.6h36.8zm308.7 0v23.7h-65.4v40.5h65.4v23.9h-65.4v68.7h-30.3V2.6h95.7zm109.5 0 69.3 156.9h-32l-16.3-38.2h-69.7l-15.2 38.2h-31.8L1314 2.6h31zm-39.5 95.6h50.6l-26.5-62.1-24.1 62.1zM1487.4.5c15.3 0 30 3.8 44.1 11.5v27c-16.2-9.8-30.7-14.7-43.2-14.7-7.6 0-13.6 1.5-17.9 4.4-4.3 3-6.5 6.9-6.5 11.8 0 5.9 4 11.4 12 16.4 2.2 1.5 10.9 5.7 25.9 12.6 12.9 6.1 22.2 12.8 27.9 20.2 5.7 7.4 8.5 16.3 8.5 26.7 0 13.5-4.8 24.4-14.5 32.6-9.7 8.3-22.3 12.4-37.7 12.4-10 0-18.7-1.1-25.9-3.3-7.2-2.2-15.3-6-24.3-11.4v-29.9c16.8 13.9 32.6 20.9 47.4 20.9 7.4 0 13.4-1.6 18-4.8 4.6-3.2 6.9-7.5 6.9-12.8 0-7.3-4-13.2-11.9-17.7-6.6-3.6-15.1-7.9-25.5-12.9-12.4-5.6-21.6-12.2-27.7-19.7-6.1-7.5-9.2-16.2-9.2-26.1 0-13.2 4.9-23.7 14.7-31.5 9.9-7.8 22.8-11.7 38.9-11.7zm116.9 2.1v66h81.4v-66h30.3v156.9h-30.3V93.2h-81.4v66.3H1574V2.6h30.3zm186.6 0v156.9h-30.3V2.6h30.3zM1915.7.5c16.2 0 30.9 3.4 43.9 10.1 13 6.7 23.3 16.4 31.1 29 7.7 12.6 11.6 26.4 11.6 41.5 0 14.7-3.8 28.3-11.3 40.8-7.5 12.5-17.9 22.3-31 29.2-13.1 6.9-27.9 10.4-44.4 10.4-16.2 0-31-3.5-44.3-10.6-13.3-7-23.6-16.7-31.1-29-7.4-12.3-11.1-25.9-11.1-40.8 0-14.4 3.7-27.9 11.1-40.5 7.4-12.7 17.6-22.5 30.7-29.5C1883.8 4 1898.8.5 1915.7.5zm-55.3 80.6c0 10.4 2.4 19.8 7.1 28.1s11.3 14.8 19.7 19.3c8.4 4.6 18 6.9 28.6 6.9 16.1 0 29.3-5.1 39.7-15.2C1965.8 110 1971 97 1971 81.1c0-10.4-2.3-19.8-7-28.1s-11.3-14.8-19.8-19.4c-8.5-4.6-18.1-6.9-28.7-6.9-10.6 0-20.2 2.3-28.7 6.9-8.5 4.6-15 11-19.6 19.3-4.6 8.3-6.8 17.7-6.8 28.2zm206-78.5 93.2 109.5V2.6h29.6v156.9h-26.1l-93.8-111.3v111.3h-29.6V2.6h26.7z"/></svg>
